REM DIRINDEX 1\2,1\3,1\4,1\5
REM DIRNAME cjc155,folder01,folder02,folder03,folder04
TITLE ""
FILE "CD1Track08.mp3" MP3
  TRACK 01 AUDIO
    TITLE "5:cjc155_0783"
    INDEX 01 00:00:00
  TRACK 02 AUDIO
    TITLE "0:"
    INDEX 01 00:01:42
  TRACK 03 AUDIO
    TITLE "2:cjc155_0784"
    INDEX 01 00:02:43
  TRACK 04 AUDIO
    TITLE "3:cjc155_0785"
    INDEX 01 00:04:38
  TRACK 05 AUDIO
    TITLE "2:cjc155_0786"
    INDEX 01 00:06:41
  TRACK 06 AUDIO
    TITLE "3:cjc155_0787"
    INDEX 01 00:08:56
  TRACK 07 AUDIO
    TITLE "2:cjc155_0788"
    INDEX 01 00:11:05
  TRACK 08 AUDIO
    TITLE "3:cjc155_0789"
    INDEX 01 00:13:32
  TRACK 09 AUDIO
    TITLE "2:cjc155_0790"
    INDEX 01 00:15:64
  TRACK 10 AUDIO
    TITLE "3:cjc155_0791"
    INDEX 01 00:17:16
  TRACK 11 AUDIO
    TITLE "2:cjc155_0792"
    INDEX 01 00:18:50
  TRACK 12 AUDIO
    TITLE "3:cjc155_0793"
    INDEX 01 00:20:20
  TRACK 13 AUDIO
    TITLE "2:cjc155_0794"
    INDEX 01 00:21:70
  TRACK 14 AUDIO
    TITLE "3:cjc155_0795"
    INDEX 01 00:23:61
  TRACK 15 AUDIO
    TITLE "2:cjc155_0796"
    INDEX 01 00:25:60
  TRACK 16 AUDIO
    TITLE "3:cjc155_0797"
    INDEX 01 00:27:53
  TRACK 17 AUDIO
    TITLE "2:cjc155_0798"
    INDEX 01 00:29:52
  TRACK 18 AUDIO
    TITLE "3:cjc155_0799"
    INDEX 01 00:31:71
  TRACK 19 AUDIO
    TITLE "2:cjc155_0800"
    INDEX 01 00:34:20
  TRACK 20 AUDIO
    TITLE "3:cjc155_0801"
    INDEX 01 00:35:47
  TRACK 21 AUDIO
    TITLE "2:cjc155_0802"
    INDEX 01 00:37:12
  TRACK 22 AUDIO
    TITLE "3:cjc155_0803"
    INDEX 01 00:39:62
  TRACK 23 AUDIO
    TITLE "2:cjc155_0804"
    INDEX 01 00:42:45
  TRACK 24 AUDIO
    TITLE "3:cjc155_0805"
    INDEX 01 00:44:73
  TRACK 25 AUDIO
    TITLE "2:cjc155_0806"
    INDEX 01 00:47:38
  TRACK 26 AUDIO
    TITLE "3:cjc155_0807"
    INDEX 01 00:49:06
  TRACK 27 AUDIO
    TITLE "2:cjc155_0808"
    INDEX 01 00:50:54
  TRACK 28 AUDIO
    TITLE "3:cjc155_0809"
    INDEX 01 00:53:06
  TRACK 29 AUDIO
    TITLE "2:cjc155_0810"
    INDEX 01 00:55:44
  TRACK 30 AUDIO
    TITLE "3:cjc155_0811"
    INDEX 01 00:57:33
  TRACK 31 AUDIO
    TITLE "2:cjc155_0812"
    INDEX 01 00:59:30
  TRACK 32 AUDIO
    TITLE "3:cjc155_0813"
    INDEX 01 01:01:01
  TRACK 33 AUDIO
    TITLE "2:cjc155_0814"
    INDEX 01 01:02:55
  TRACK 34 AUDIO
    TITLE "3:cjc155_0815"
    INDEX 01 01:04:50
  TRACK 35 AUDIO
    TITLE "2:cjc155_0816"
    INDEX 01 01:06:51
  TRACK 36 AUDIO
    TITLE "3:cjc155_0817"
    INDEX 01 01:08:11
  TRACK 37 AUDIO
    TITLE "2:cjc155_0818"
    INDEX 01 01:09:52
  TRACK 38 AUDIO
    TITLE "3:cjc155_0819"
    INDEX 01 01:12:52
  TRACK 39 AUDIO
    TITLE "2:cjc155_0820"
    INDEX 01 01:15:56
  TRACK 40 AUDIO
    TITLE "3:cjc155_0821"
    INDEX 01 01:18:07
  TRACK 41 AUDIO
    TITLE "2:cjc155_0822"
    INDEX 01 01:20:34
  TRACK 42 AUDIO
    TITLE "3:cjc155_0823"
    INDEX 01 01:21:70
  TRACK 43 AUDIO
    TITLE "2:cjc155_0824"
    INDEX 01 01:23:28
  TRACK 44 AUDIO
    TITLE "3:cjc155_0825"
    INDEX 01 01:26:05
  TRACK 45 AUDIO
    TITLE "2:cjc155_0826"
    INDEX 01 01:28:55
  TRACK 46 AUDIO
    TITLE "3:cjc155_0827"
    INDEX 01 01:29:52
  TRACK 47 AUDIO
    TITLE "2:cjc155_0828"
    INDEX 01 01:30:60
  TRACK 48 AUDIO
    TITLE "3:cjc155_0829"
    INDEX 01 01:32:08
  TRACK 49 AUDIO
    TITLE "2:cjc155_0830"
    INDEX 01 01:33:40
  TRACK 50 AUDIO
    TITLE "3:cjc155_0831"
    INDEX 01 01:35:35
  TRACK 51 AUDIO
    TITLE "2:cjc155_0832"
    INDEX 01 01:37:38
  TRACK 52 AUDIO
    TITLE "3:cjc155_0833"
    INDEX 01 01:38:36
  TRACK 53 AUDIO
    TITLE "2:cjc155_0834"
    INDEX 01 01:39:45
  TRACK 54 AUDIO
    TITLE "3:cjc155_0835"
    INDEX 01 01:41:46
  TRACK 55 AUDIO
    TITLE "2:cjc155_0836"
    INDEX 01 01:43:56
  TRACK 56 AUDIO
    TITLE "3:cjc155_0837"
    INDEX 01 01:45:55
  TRACK 57 AUDIO
    TITLE "2:cjc155_0838"
    INDEX 01 01:47:60
  TRACK 58 AUDIO
    TITLE "3:cjc155_0839"
    INDEX 01 01:49:47
  TRACK 59 AUDIO
    TITLE "2:cjc155_0840"
    INDEX 01 01:51:46
  TRACK 60 AUDIO
    TITLE "3:cjc155_0841"
    INDEX 01 01:54:35
  TRACK 61 AUDIO
    TITLE "2:cjc155_0842"
    INDEX 01 01:57:35
  TRACK 62 AUDIO
    TITLE "3:cjc155_0843"
    INDEX 01 01:59:40
  TRACK 63 AUDIO
    TITLE "2:cjc155_0844"
    INDEX 01 02:01:58
  TRACK 64 AUDIO
    TITLE "3:cjc155_0845"
    INDEX 01 02:04:21
  TRACK 65 AUDIO
    TITLE "2:cjc155_0846"
    INDEX 01 02:06:67
  TRACK 66 AUDIO
    TITLE "3:cjc155_0847"
    INDEX 01 02:08:48
  TRACK 67 AUDIO
    TITLE "2:cjc155_0848"
    INDEX 01 02:10:42
  TRACK 68 AUDIO
    TITLE "3:cjc155_0849"
    INDEX 01 02:12:72
  TRACK 69 AUDIO
    TITLE "2:cjc155_0850"
    INDEX 01 02:15:33
  TRACK 70 AUDIO
    TITLE "3:cjc155_0851"
    INDEX 01 02:16:52
  TRACK 71 AUDIO
    TITLE "2:cjc155_0852"
    INDEX 01 02:18:00
  TRACK 72 AUDIO
    TITLE "3:cjc155_0853"
    INDEX 01 02:19:21
  TRACK 73 AUDIO
    TITLE "2:cjc155_0854"
    INDEX 01 02:20:46
  TRACK 74 AUDIO
    TITLE "3:cjc155_0855"
    INDEX 01 02:22:29
  TRACK 75 AUDIO
    TITLE "2:cjc155_0856"
    INDEX 01 02:24:12
  TRACK 76 AUDIO
    TITLE "3:cjc155_0857"
    INDEX 01 02:26:31
  TRACK 77 AUDIO
    TITLE "2:cjc155_0858"
    INDEX 01 02:28:61
  TRACK 78 AUDIO
    TITLE "3:cjc155_0859"
    INDEX 01 02:30:42
  TRACK 79 AUDIO
    TITLE "2:cjc155_0860"
    INDEX 01 02:32:35
  TRACK 80 AUDIO
    TITLE "3:cjc155_0861"
    INDEX 01 02:33:74
  TRACK 81 AUDIO
    TITLE "2:cjc155_0862"
    INDEX 01 02:35:43
  TRACK 82 AUDIO
    TITLE "3:cjc155_0863"
    INDEX 01 02:37:09
  TRACK 83 AUDIO
    TITLE "2:cjc155_0864"
    INDEX 01 02:38:55
  TRACK 84 AUDIO
    TITLE "3:cjc155_0865"
    INDEX 01 02:40:64
  TRACK 85 AUDIO
    TITLE "2:cjc155_0866"
    INDEX 01 02:43:04
  TRACK 86 AUDIO
    TITLE "3:cjc155_0867"
    INDEX 01 02:44:36
  TRACK 87 AUDIO
    TITLE "2:cjc155_0868"
    INDEX 01 02:46:02
  TRACK 88 AUDIO
    TITLE "3:cjc155_0869"
    INDEX 01 02:47:31
  TRACK 89 AUDIO
    TITLE "2:cjc155_0870"
    INDEX 01 02:48:66
  TRACK 90 AUDIO
    TITLE "3:cjc155_0871"
    INDEX 01 02:50:45
  TRACK 91 AUDIO
    TITLE "2:cjc155_0872"
    INDEX 01 02:52:30
  TRACK 92 AUDIO
    TITLE "3:cjc155_0873"
    INDEX 01 02:55:05
  TRACK 93 AUDIO
    TITLE "2:cjc155_0874"
    INDEX 01 02:57:67
  TRACK 94 AUDIO
    TITLE "3:cjc155_0875"
    INDEX 01 02:59:32
  TRACK 95 AUDIO
    TITLE "2:cjc155_0876"
    INDEX 01 03:01:09
  TRACK 96 AUDIO
    TITLE "3:cjc155_0877"
    INDEX 01 03:02:19
  TRACK 97 AUDIO
    TITLE "2:cjc155_0878"
    INDEX 01 03:03:36
  TRACK 98 AUDIO
    TITLE "3:cjc155_0879"
    INDEX 01 03:05:07
  TRACK 99 AUDIO
    TITLE "2:cjc155_0880"
    INDEX 01 03:06:58
  TRACK 100 AUDIO
    TITLE "3:cjc155_0881"
    INDEX 01 03:08:47
  TRACK 101 AUDIO
    TITLE "2:cjc155_0882"
    INDEX 01 03:10:44
  TRACK 102 AUDIO
    TITLE "3:cjc155_0883"
    INDEX 01 03:11:43
  TRACK 103 AUDIO
    TITLE "2:cjc155_0884"
    INDEX 01 03:12:58
  TRACK 104 AUDIO
    TITLE "3:cjc155_0885"
    INDEX 01 03:15:66
  TRACK 105 AUDIO
    TITLE "2:cjc155_0886"
    INDEX 01 03:19:07
  TRACK 106 AUDIO
    TITLE "3:cjc155_0887"
    INDEX 01 03:21:26
  TRACK 107 AUDIO
    TITLE "2:cjc155_0888"
    INDEX 01 03:23:48
  TRACK 108 AUDIO
    TITLE "3:cjc155_0889"
    INDEX 01 03:26:21
  TRACK 109 AUDIO
    TITLE "2:cjc155_0890"
    INDEX 01 03:28:73
  TRACK 110 AUDIO
    TITLE "3:cjc155_0891"
    INDEX 01 03:31:54
  TRACK 111 AUDIO
    TITLE "2:cjc155_0892"
    INDEX 01 03:34:36
  TRACK 112 AUDIO
    TITLE "3:cjc155_0893"
    INDEX 01 03:36:35
  TRACK 113 AUDIO
    TITLE "2:cjc155_0894"
    INDEX 01 03:38:40
  TRACK 114 AUDIO
    TITLE "3:cjc155_0895"
    INDEX 01 03:40:04
  TRACK 115 AUDIO
    TITLE "2:cjc155_0896"
    INDEX 01 03:41:52
  TRACK 116 AUDIO
    TITLE "3:cjc155_0897"
    INDEX 01 03:44:03
  TRACK 117 AUDIO
    TITLE "2:cjc155_0898"
    INDEX 01 03:46:42
  TRACK 118 AUDIO
    TITLE "3:cjc155_0899"
    INDEX 01 03:49:09
  TRACK 119 AUDIO
    TITLE "2:cjc155_0900"
    INDEX 01 03:51:70
  TRACK 120 AUDIO
    TITLE "3:cjc155_0901"
    INDEX 01 03:53:59
  TRACK 121 AUDIO
    TITLE "2:cjc155_0902"
    INDEX 01 03:55:64
  TRACK 122 AUDIO
    TITLE "3:cjc155_0903"
    INDEX 01 03:57:69
  TRACK 123 AUDIO
    TITLE "2:cjc155_0904"
    INDEX 01 04:00:14
  TRACK 124 AUDIO
    TITLE "3:cjc155_0905"
    INDEX 01 04:01:69
  TRACK 125 AUDIO
    TITLE "2:cjc155_0906"
    INDEX 01 04:03:54
  TRACK 126 AUDIO
    TITLE "3:cjc155_0907"
    INDEX 01 04:05:27
  TRACK 127 AUDIO
    TITLE "2:cjc155_0908"
    INDEX 01 04:07:06
  TRACK 128 AUDIO
    TITLE "3:cjc155_0909"
    INDEX 01 04:08:43
  TRACK 129 AUDIO
    TITLE "2:cjc155_0910"
    INDEX 01 04:10:17
  TRACK 130 AUDIO
    TITLE "3:cjc155_0911"
    INDEX 01 04:12:08
  TRACK 131 AUDIO
    TITLE "2:cjc155_0912"
    INDEX 01 04:14:08
  TRACK 132 AUDIO
    TITLE "3:cjc155_0913"
    INDEX 01 04:16:09
  TRACK 133 AUDIO
    TITLE "2:cjc155_0914"
    INDEX 01 04:18:30
  TRACK 134 AUDIO
    TITLE "3:cjc155_0915"
    INDEX 01 04:19:47
  TRACK 135 AUDIO
    TITLE "2:cjc155_0916"
    INDEX 01 04:20:68
  TRACK 136 AUDIO
    TITLE "3:cjc155_0917"
    INDEX 01 04:22:31
  TRACK 137 AUDIO
    TITLE "2:cjc155_0918"
    INDEX 01 04:24:01
  TRACK 138 AUDIO
    TITLE "3:cjc155_0919"
    INDEX 01 04:26:23
  TRACK 139 AUDIO
    TITLE "2:cjc155_0920"
    INDEX 01 04:28:58
  TRACK 140 AUDIO
    TITLE "3:cjc155_0921"
    INDEX 01 04:30:11
  TRACK 141 AUDIO
    TITLE "2:cjc155_0922"
    INDEX 01 04:31:48
  TRACK 142 AUDIO
    TITLE "3:cjc155_0923"
    INDEX 01 04:33:47
  TRACK 143 AUDIO
    TITLE "2:cjc155_0924"
    INDEX 01 04:35:46
  TRACK 144 AUDIO
    TITLE "3:cjc155_0925"
    INDEX 01 04:38:17
  TRACK 145 AUDIO
    TITLE "2:cjc155_0926"
    INDEX 01 04:40:69
  TRACK 146 AUDIO
    TITLE "3:cjc155_0927"
    INDEX 01 04:42:17
  TRACK 147 AUDIO
    TITLE "2:cjc155_0928"
    INDEX 01 04:43:51
  TRACK 148 AUDIO
    TITLE "3:cjc155_0929"
    INDEX 01 04:44:59
  TRACK 149 AUDIO
    TITLE "2:cjc155_0930"
    INDEX 01 04:45:74
  TRACK 150 AUDIO
    TITLE "3:cjc155_0931"
    INDEX 01 04:47:47
  TRACK 151 AUDIO
    TITLE "2:cjc155_0932"
    INDEX 01 04:49:22
  TRACK 152 AUDIO
    TITLE "3:cjc155_0933"
    INDEX 01 04:50:69
  TRACK 153 AUDIO
    TITLE "2:cjc155_0934"
    INDEX 01 04:52:46
  TRACK 154 AUDIO
    TITLE "3:cjc155_0935"
    INDEX 01 04:54:39
  TRACK 155 AUDIO
    TITLE "2:cjc155_0936"
    INDEX 01 04:56:44
  TRACK 156 AUDIO
    TITLE "3:cjc155_0937"
    INDEX 01 04:58:16
  TRACK 157 AUDIO
    TITLE "2:cjc155_0938"
    INDEX 01 04:59:64
  TRACK 158 AUDIO
    TITLE "3:cjc155_0939"
    INDEX 01 05:01:32
  TRACK 159 AUDIO
    TITLE "2:cjc155_0940"
    INDEX 01 05:02:74
  TRACK 160 AUDIO
    TITLE "3:cjc155_0941"
    INDEX 01 05:05:29
  TRACK 161 AUDIO
    TITLE "2:cjc155_0942"
    INDEX 01 05:07:67
  TRACK 162 AUDIO
    TITLE "3:cjc155_0943"
    INDEX 01 05:10:58
  TRACK 163 AUDIO
    TITLE "2:cjc155_0944"
    INDEX 01 05:13:52
  TRACK 164 AUDIO
    TITLE "3:cjc155_0945"
    INDEX 01 05:16:17
  TRACK 165 AUDIO
    TITLE "2:cjc155_0946"
    INDEX 01 05:18:69
  TRACK 166 AUDIO
    TITLE "3:cjc155_0947"
    INDEX 01 05:20:03
  TRACK 167 AUDIO
    TITLE "2:cjc155_0948"
    INDEX 01 05:21:19
  TRACK 168 AUDIO
    TITLE "3:cjc155_0949"
    INDEX 01 05:22:36
  TRACK 169 AUDIO
    TITLE "2:cjc155_0950"
    INDEX 01 05:23:51
  TRACK 170 AUDIO
    TITLE "3:cjc155_0951"
    INDEX 01 05:25:69
  TRACK 171 AUDIO
    TITLE "2:cjc155_0952"
    INDEX 01 05:28:23
  TRACK 172 AUDIO
    TITLE "3:cjc155_0953"
    INDEX 01 05:30:29
  TRACK 173 AUDIO
    TITLE "2:cjc155_0954"
    INDEX 01 05:32:52
  TRACK 174 AUDIO
    TITLE "3:cjc155_0955"
    INDEX 01 05:34:00
  TRACK 175 AUDIO
    TITLE "2:cjc155_0956"
    INDEX 01 05:35:27
  TRACK 176 AUDIO
    TITLE "3:cjc155_0957"
    INDEX 01 05:38:21
  TRACK 177 AUDIO
    TITLE "2:cjc155_0958"
    INDEX 01 05:41:23
  TRACK 178 AUDIO
    TITLE "3:cjc155_0959"
    INDEX 01 05:42:50
  TRACK 179 AUDIO
    TITLE "2:cjc155_0960"
    INDEX 01 05:44:16
  TRACK 180 AUDIO
    TITLE "3:cjc155_0961"
    INDEX 01 05:45:39
  TRACK 181 AUDIO
    TITLE "2:cjc155_0962"
    INDEX 01 05:46:64
  TRACK 182 AUDIO
    TITLE "3:cjc155_0963"
    INDEX 01 05:48:06
  TRACK 183 AUDIO
    TITLE "2:cjc155_0964"
    INDEX 01 05:49:33
  TRACK 184 AUDIO
    TITLE "3:cjc155_0965"
    INDEX 01 05:51:35
  TRACK 185 AUDIO
    TITLE "2:cjc155_0966"
    INDEX 01 05:53:44
  TRACK 186 AUDIO
    TITLE "3:cjc155_0967"
    INDEX 01 05:54:63
  TRACK 187 AUDIO
    TITLE "2:cjc155_0968"
    INDEX 01 05:56:11
  TRACK 188 AUDIO
    TITLE "3:cjc155_0969"
    INDEX 01 05:58:04
  TRACK 189 AUDIO
    TITLE "2:cjc155_0970"
    INDEX 01 06:00:07
  TRACK 190 AUDIO
    TITLE "3:cjc155_0971"
    INDEX 01 06:01:30
  TRACK 191 AUDIO
    TITLE "2:cjc155_0972"
    INDEX 01 06:02:53
  TRACK 192 AUDIO
    TITLE "3:cjc155_0973"
    INDEX 01 06:04:28
  TRACK 193 AUDIO
    TITLE "2:cjc155_0974"
    INDEX 01 06:06:17
  TRACK 194 AUDIO
    TITLE "3:cjc155_0975"
    INDEX 01 06:07:38
  TRACK 195 AUDIO
    TITLE "2:cjc155_0976"
    INDEX 01 06:08:69
  TRACK 196 AUDIO
    TITLE "3:cjc155_0977"
    INDEX 01 06:12:08
  TRACK 197 AUDIO
    TITLE "2:cjc155_0978"
    INDEX 01 06:15:32
  TRACK 198 AUDIO
    TITLE "3:cjc155_0979"
    INDEX 01 06:17:45
  TRACK 199 AUDIO
    TITLE "2:cjc155_0980"
    INDEX 01 06:19:61
  TRACK 200 AUDIO
    TITLE "3:cjc155_0981"
    INDEX 01 06:21:29
  TRACK 201 AUDIO
    TITLE "2:cjc155_0982"
    INDEX 01 06:23:04
  TRACK 202 AUDIO
    TITLE "3:cjc155_0983"
    INDEX 01 06:24:52
  TRACK 203 AUDIO
    TITLE "2:cjc155_0984"
    INDEX 01 06:26:36
  TRACK 204 AUDIO
    TITLE "3:cjc155_0985"
    INDEX 01 06:28:62
  TRACK 205 AUDIO
    TITLE "2:cjc155_0986"
    INDEX 01 06:31:27
  TRACK 206 AUDIO
    TITLE "3:cjc155_0987"
    INDEX 01 06:34:21
  TRACK 207 AUDIO
    TITLE "2:cjc155_0988"
    INDEX 01 06:37:24
  TRACK 208 AUDIO
    TITLE "3:cjc155_0989"
    INDEX 01 06:38:62
  TRACK 209 AUDIO
    TITLE "2:cjc155_0990"
    INDEX 01 06:40:30
  TRACK 210 AUDIO
    TITLE "3:cjc155_0991"
    INDEX 01 06:42:35
  TRACK 211 AUDIO
    TITLE "2:cjc155_0992"
    INDEX 01 06:44:37
  TRACK 212 AUDIO
    TITLE "3:cjc155_0993"
    INDEX 01 06:46:15
  TRACK 213 AUDIO
    TITLE "2:cjc155_0994"
    INDEX 01 06:48:02
  TRACK 214 AUDIO
    TITLE "3:cjc155_0995"
    INDEX 01 06:50:42
  TRACK 215 AUDIO
    TITLE "2:cjc155_0996"
    INDEX 01 06:54:03
  TRACK 216 AUDIO
    TITLE "3:cjc155_0997"
    INDEX 01 06:55:37
  TRACK 217 AUDIO
    TITLE "2:cjc155_0998"
    INDEX 01 06:57:05
  TRACK 218 AUDIO
    TITLE "3:cjc155_0999"
    INDEX 01 06:58:73
  TRACK 219 AUDIO
    TITLE "2:cjc155_1000"
    INDEX 01 07:00:66
  TRACK 220 AUDIO
    TITLE "3:cjc155_1001"
    INDEX 01 07:02:39
  TRACK 221 AUDIO
    TITLE "2:cjc155_1002"
    INDEX 01 07:04:09
  TRACK 222 AUDIO
    TITLE "3:cjc155_1003"
    INDEX 01 07:06:14
  TRACK 223 AUDIO
    TITLE "2:cjc155_1004"
    INDEX 01 07:08:12
  TRACK 224 AUDIO
    TITLE "3:cjc155_1005"
    INDEX 01 07:09:43
  TRACK 225 AUDIO
    TITLE "2:cjc155_1006"
    INDEX 01 07:11:03
  TRACK 226 AUDIO
    TITLE "3:cjc155_1007"
    INDEX 01 07:13:14
  TRACK 227 AUDIO
    TITLE "2:cjc155_1008"
    INDEX 01 07:15:24
  TRACK 228 AUDIO
    TITLE "3:cjc155_1009"
    INDEX 01 07:17:09
  TRACK 229 AUDIO
    TITLE "2:cjc155_1010"
    INDEX 01 07:19:04
  TRACK 230 AUDIO
    TITLE "3:cjc155_1011"
    INDEX 01 07:20:18
  TRACK 231 AUDIO
    TITLE "2:cjc155_1012"
    INDEX 01 07:21:35
  TRACK 232 AUDIO
    TITLE "3:cjc155_1013"
    INDEX 01 07:22:64
  TRACK 233 AUDIO
    TITLE "2:cjc155_1014"
    INDEX 01 07:24:17
  TRACK 234 AUDIO
    TITLE "3:cjc155_1015"
    INDEX 01 07:26:69
  TRACK 235 AUDIO
    TITLE "0:"
    INDEX 01 07:29:54
